<?xml version="1.0" encoding="utf-8" standalone="no"?>
<!DOCTYPE svg PUBLIC "-//W3C//DTD SVG 1.1//EN"
  "http://www.w3.org/Graphics/SVG/1.1/DTD/svg11.dtd">
<svg xmlns:xlink="http://www.w3.org/1999/xlink" width="360pt" height="432pt" viewBox="0 0 360 432" xmlns="http://www.w3.org/2000/svg" version="1.1">
 <metadata>
  <rdf:RDF xmlns:dc="http://purl.org/dc/elements/1.1/" xmlns:cc="http://creativecommons.org/ns#" xmlns:rdf="http://www.w3.org/1999/02/22-rdf-syntax-ns#">
   <cc:Work>
    <dc:type rdf:resource="http://purl.org/dc/dcmitype/StillImage"/>
    <dc:date>2023-04-28T09:23:53.078000</dc:date>
    <dc:format>image/svg+xml</dc:format>
    <dc:creator>
     <cc:Agent>
      <dc:title>Matplotlib v3.5.2, https://matplotlib.org/</dc:title>
     </cc:Agent>
    </dc:creator>
   </cc:Work>
  </rdf:RDF>
 </metadata>
 <defs>
  <style type="text/css">*{stroke-linejoin: round; stroke-linecap: butt}</style>
 </defs>
 <g id="figure_1">
  <g id="patch_1">
   <path d="M 0 432 
L 360 432 
L 360 0 
L 0 0 
z
" style="fill: #ffffff"/>
  </g>
  <g id="axes_1">
   <g id="patch_2">
    <path d="M 184.5 81.628657 
L 182.807463 78.243582 
L 184.432299 78.243582 
L 184.432299 74.858507 
L 184.567701 74.858507 
L 184.567701 78.243582 
L 186.192537 78.243582 
z
" clip-path="url(#pae4718529b)" style="stroke: #000000; stroke-linejoin: miter"/>
   </g>
   <g id="patch_3">
    <path d="M 177.729851 98.55403 
L 191.270149 98.55403 
L 191.270149 85.013731 
L 177.729851 85.013731 
L 177.729851 98.55403 
z
" style="fill: none; stroke: #000000; stroke-linejoin: miter"/>
   </g>
   <g id="patch_4">
    <path d="M 184.5 108.709254 
L 182.807463 105.324179 
L 184.432299 105.324179 
L 184.432299 101.939104 
L 184.567701 101.939104 
L 184.567701 105.324179 
L 186.192537 105.324179 
z
" clip-path="url(#pae4718529b)" style="stroke: #000000; stroke-linejoin: miter"/>
   </g>
   <g id="patch_5">
    <path d="M 170.959701 125.634627 
L 184.5 125.634627 
L 184.5 112.094328 
L 170.959701 112.094328 
L 170.959701 125.634627 
z
" style="fill: none; stroke: #000000; stroke-linejoin: miter"/>
   </g>
   <g id="patch_6">
    <path d="M 184.5 125.634627 
L 198.040299 125.634627 
L 198.040299 112.094328 
L 184.5 112.094328 
L 184.5 125.634627 
z
" style="fill: none; stroke: #000000; stroke-linejoin: miter"/>
   </g>
   <g id="patch_7">
    <path d="M 184.5 135.789851 
L 182.807463 132.404776 
L 184.432299 132.404776 
L 184.432299 129.019701 
L 184.567701 129.019701 
L 184.567701 132.404776 
L 186.192537 132.404776 
z
" clip-path="url(#pae4718529b)" style="stroke: #000000; stroke-linejoin: miter"/>
   </g>
   <g id="patch_8">
    <path d="M 177.729851 152.715224 
L 191.270149 152.715224 
L 191.270149 139.174925 
L 177.729851 139.174925 
L 177.729851 152.715224 
z
" style="fill: none; stroke: #000000; stroke-linejoin: miter"/>
   </g>
   <g id="patch_9">
    <path d="M 184.5 162.870448 
L 182.807463 159.485373 
L 184.432299 159.485373 
L 184.432299 156.100299 
L 184.567701 156.100299 
L 184.567701 159.485373 
L 186.192537 159.485373 
z
" clip-path="url(#pae4718529b)" style="stroke: #000000; stroke-linejoin: miter"/>
   </g>
   <g id="patch_10">
    <path d="M 184.5 189.951045 
L 182.807463 186.56597 
L 184.432299 186.56597 
L 184.432299 183.180896 
L 184.567701 183.180896 
L 184.567701 186.56597 
L 186.192537 186.56597 
z
" clip-path="url(#pae4718529b)" style="stroke: #000000; stroke-linejoin: miter"/>
   </g>
   <g id="patch_11">
    <path d="M 177.729851 206.876418 
L 191.270149 206.876418 
L 191.270149 193.336119 
L 177.729851 193.336119 
L 177.729851 206.876418 
z
" style="fill: none; stroke: #000000; stroke-linejoin: miter"/>
   </g>
   <g id="patch_12">
    <path d="M 184.5 217.031642 
L 182.807463 213.646567 
L 184.432299 213.646567 
L 184.432299 210.261493 
L 184.567701 210.261493 
L 184.567701 213.646567 
L 186.192537 213.646567 
z
" clip-path="url(#pae4718529b)" style="stroke: #000000; stroke-linejoin: miter"/>
   </g>
   <g id="patch_13">
    <path d="M 170.959701 233.957015 
L 184.5 233.957015 
L 184.5 220.416716 
L 170.959701 220.416716 
L 170.959701 233.957015 
z
" style="fill: none; stroke: #000000; stroke-linejoin: miter"/>
   </g>
   <g id="patch_14">
    <path d="M 184.5 233.957015 
L 198.040299 233.957015 
L 198.040299 220.416716 
L 184.5 220.416716 
L 184.5 233.957015 
z
" style="fill: none; stroke: #000000; stroke-linejoin: miter"/>
   </g>
   <g id="patch_15">
    <path d="M 184.5 244.112239 
L 182.807463 240.727164 
L 184.432299 240.727164 
L 184.432299 237.34209 
L 184.567701 237.34209 
L 184.567701 240.727164 
L 186.192537 240.727164 
z
" clip-path="url(#pae4718529b)" style="stroke: #000000; stroke-linejoin: miter"/>
   </g>
   <g id="patch_16">
    <path d="M 164.189552 261.037612 
L 177.729851 261.037612 
L 177.729851 247.497313 
L 164.189552 247.497313 
L 164.189552 261.037612 
z
" style="fill: none; stroke: #000000; stroke-linejoin: miter"/>
   </g>
   <g id="patch_17">
    <path d="M 177.729851 261.037612 
L 191.270149 261.037612 
L 191.270149 247.497313 
L 177.729851 247.497313 
L 177.729851 261.037612 
z
" style="fill: none; stroke: #000000; stroke-linejoin: miter"/>
   </g>
   <g id="patch_18">
    <path d="M 191.270149 261.037612 
L 204.810448 261.037612 
L 204.810448 247.497313 
L 191.270149 247.497313 
L 191.270149 261.037612 
z
" style="fill: none; stroke: #000000; stroke-linejoin: miter"/>
   </g>
   <g id="patch_19">
    <path d="M 184.5 271.192836 
L 182.807463 267.807761 
L 184.432299 267.807761 
L 184.432299 264.422687 
L 184.567701 264.422687 
L 184.567701 267.807761 
L 186.192537 267.807761 
z
" clip-path="url(#pae4718529b)" style="stroke: #000000; stroke-linejoin: miter"/>
   </g>
   <g id="patch_20">
    <path d="M 157.419403 288.118209 
L 170.959701 288.118209 
L 170.959701 274.57791 
L 157.419403 274.57791 
L 157.419403 288.118209 
z
" style="fill: none; stroke: #000000; stroke-linejoin: miter"/>
   </g>
   <g id="patch_21">
    <path d="M 170.959701 288.118209 
L 184.5 288.118209 
L 184.5 274.57791 
L 170.959701 274.57791 
L 170.959701 288.118209 
z
" style="fill: none; stroke: #000000; stroke-linejoin: miter"/>
   </g>
   <g id="patch_22">
    <path d="M 184.5 288.118209 
L 198.040299 288.118209 
L 198.040299 274.57791 
L 184.5 274.57791 
L 184.5 288.118209 
z
" style="fill: none; stroke: #000000; stroke-linejoin: miter"/>
   </g>
   <g id="patch_23">
    <path d="M 198.040299 288.118209 
L 211.580597 288.118209 
L 211.580597 274.57791 
L 198.040299 274.57791 
L 198.040299 288.118209 
z
" style="fill: none; stroke: #000000; stroke-linejoin: miter"/>
   </g>
   <g id="patch_24">
    <path d="M 184.5 298.273433 
L 182.807463 294.888358 
L 184.432299 294.888358 
L 184.432299 291.503284 
L 184.567701 291.503284 
L 184.567701 294.888358 
L 186.192537 294.888358 
z
" clip-path="url(#pae4718529b)" style="stroke: #000000; stroke-linejoin: miter"/>
   </g>
   <g id="patch_25">
    <path d="M 164.189552 315.198806 
L 177.729851 315.198806 
L 177.729851 301.658507 
L 164.189552 301.658507 
L 164.189552 315.198806 
z
" style="fill: none; stroke: #000000; stroke-linejoin: miter"/>
   </g>
   <g id="patch_26">
    <path d="M 177.729851 315.198806 
L 191.270149 315.198806 
L 191.270149 301.658507 
L 177.729851 301.658507 
L 177.729851 315.198806 
z
" style="fill: none; stroke: #000000; stroke-linejoin: miter"/>
   </g>
   <g id="patch_27">
    <path d="M 191.270149 315.198806 
L 204.810448 315.198806 
L 204.810448 301.658507 
L 191.270149 301.658507 
L 191.270149 315.198806 
z
" style="fill: none; stroke: #000000; stroke-linejoin: miter"/>
   </g>
   <g id="patch_28">
    <path d="M 184.5 325.35403 
L 182.807463 321.968955 
L 184.432299 321.968955 
L 184.432299 318.583881 
L 184.567701 318.583881 
L 184.567701 321.968955 
L 186.192537 321.968955 
z
" clip-path="url(#pae4718529b)" style="stroke: #000000; stroke-linejoin: miter"/>
   </g>
   <g id="patch_29">
    <path d="M 170.959701 342.279403 
L 184.5 342.279403 
L 184.5 328.739104 
L 170.959701 328.739104 
L 170.959701 342.279403 
z
" style="fill: none; stroke: #000000; stroke-linejoin: miter"/>
   </g>
   <g id="patch_30">
    <path d="M 184.5 342.279403 
L 198.040299 342.279403 
L 198.040299 328.739104 
L 184.5 328.739104 
L 184.5 342.279403 
z
" style="fill: none; stroke: #000000; stroke-linejoin: miter"/>
   </g>
   <g id="patch_31">
    <path d="M 184.5 352.434627 
L 182.807463 349.049552 
L 184.432299 349.049552 
L 184.432299 345.664478 
L 184.567701 345.664478 
L 184.567701 349.049552 
L 186.192537 349.049552 
z
" clip-path="url(#pae4718529b)" style="stroke: #000000; stroke-linejoin: miter"/>
   </g>
   <g id="patch_32">
    <path d="M 164.189552 369.36 
L 177.729851 369.36 
L 177.729851 355.819701 
L 164.189552 355.819701 
L 164.189552 369.36 
z
" style="fill: none; stroke: #000000; stroke-linejoin: miter"/>
   </g>
   <g id="patch_33">
    <path d="M 177.729851 369.36 
L 191.270149 369.36 
L 191.270149 355.819701 
L 177.729851 355.819701 
L 177.729851 369.36 
z
" style="fill: none; stroke: #000000; stroke-linejoin: miter"/>
   </g>
   <g id="patch_34">
    <path d="M 191.270149 369.36 
L 204.810448 369.36 
L 204.810448 355.819701 
L 191.270149 355.819701 
L 191.270149 369.36 
z
" style="fill: none; stroke: #000000; stroke-linejoin: miter"/>
   </g>
   <g id="line2d_1">
    <path d="M 191.270149 66.96 
L 191.270149 70.345075 
L 177.729851 70.345075 
L 177.729851 66.96 
" clip-path="url(#pae4718529b)" style="fill: none; stroke: #000000; stroke-width: 1.5; stroke-linecap: square"/>
   </g>
   <g id="line2d_2">
    <path d="M 191.270149 175.282388 
L 191.270149 178.667463 
L 177.729851 178.667463 
L 177.729851 175.282388 
" clip-path="url(#pae4718529b)" style="fill: none; stroke: #000000; stroke-width: 1.5; stroke-linecap: square"/>
   </g>
   <g id="text_1">
    <!-- 4 -->
    <g transform="translate(181.31875 95.897285)scale(0.1 -0.1)">
     <defs>
      <path id="DejaVuSans-34" d="M 2419 4116 
L 825 1625 
L 2419 1625 
L 2419 4116 
z
M 2253 4666 
L 3047 4666 
L 3047 1625 
L 3713 1625 
L 3713 1100 
L 3047 1100 
L 3047 0 
L 2419 0 
L 2419 1100 
L 313 1100 
L 313 1709 
L 2253 4666 
z
" transform="scale(0.015625)"/>
     </defs>
     <use xlink:href="#DejaVuSans-34"/>
    </g>
   </g>
   <g id="text_2">
    <!-- 10 -->
    <g transform="translate(171.367351 122.977882)scale(0.1 -0.1)">
     <defs>
      <path id="DejaVuSans-31" d="M 794 531 
L 1825 531 
L 1825 4091 
L 703 3866 
L 703 4441 
L 1819 4666 
L 2450 4666 
L 2450 531 
L 3481 531 
L 3481 0 
L 794 0 
L 794 531 
z
" transform="scale(0.015625)"/>
      <path id="DejaVuSans-30" d="M 2034 4250 
Q 1547 4250 1301 3770 
Q 1056 3291 1056 2328 
Q 1056 1369 1301 889 
Q 1547 409 2034 409 
Q 2525 409 2770 889 
Q 3016 1369 3016 2328 
Q 3016 3291 2770 3770 
Q 2525 4250 2034 4250 
z
M 2034 4750 
Q 2819 4750 3233 4129 
Q 3647 3509 3647 2328 
Q 3647 1150 3233 529 
Q 2819 -91 2034 -91 
Q 1250 -91 836 529 
Q 422 1150 422 2328 
Q 422 3509 836 4129 
Q 1250 4750 2034 4750 
z
" transform="scale(0.015625)"/>
     </defs>
     <use xlink:href="#DejaVuSans-31"/>
     <use xlink:href="#DejaVuSans-30" x="63.623047"/>
    </g>
   </g>
   <g id="text_3">
    <!-- 4 -->
    <g transform="translate(188.088899 122.977882)scale(0.1 -0.1)">
     <use xlink:href="#DejaVuSans-34"/>
    </g>
   </g>
   <g id="text_4">
    <!-- 10 -->
    <g transform="translate(178.1375 150.058479)scale(0.1 -0.1)">
     <use xlink:href="#DejaVuSans-31"/>
     <use xlink:href="#DejaVuSans-30" x="63.623047"/>
    </g>
   </g>
   <g id="text_5">
    <!-- 3 -->
    <g transform="translate(181.31875 204.219674)scale(0.1 -0.1)">
     <defs>
      <path id="DejaVuSans-33" d="M 2597 2516 
Q 3050 2419 3304 2112 
Q 3559 1806 3559 1356 
Q 3559 666 3084 287 
Q 2609 -91 1734 -91 
Q 1441 -91 1130 -33 
Q 819 25 488 141 
L 488 750 
Q 750 597 1062 519 
Q 1375 441 1716 441 
Q 2309 441 2620 675 
Q 2931 909 2931 1356 
Q 2931 1769 2642 2001 
Q 2353 2234 1838 2234 
L 1294 2234 
L 1294 2753 
L 1863 2753 
Q 2328 2753 2575 2939 
Q 2822 3125 2822 3475 
Q 2822 3834 2567 4026 
Q 2313 4219 1838 4219 
Q 1578 4219 1281 4162 
Q 984 4106 628 3988 
L 628 4550 
Q 988 4650 1302 4700 
Q 1616 4750 1894 4750 
Q 2613 4750 3031 4423 
Q 3450 4097 3450 3541 
Q 3450 3153 3228 2886 
Q 3006 2619 2597 2516 
z
" transform="scale(0.015625)"/>
     </defs>
     <use xlink:href="#DejaVuSans-33"/>
    </g>
   </g>
   <g id="text_6">
    <!-- 2 -->
    <g transform="translate(174.548601 231.300271)scale(0.1 -0.1)">
     <defs>
      <path id="DejaVuSans-32" d="M 1228 531 
L 3431 531 
L 3431 0 
L 469 0 
L 469 531 
Q 828 903 1448 1529 
Q 2069 2156 2228 2338 
Q 2531 2678 2651 2914 
Q 2772 3150 2772 3378 
Q 2772 3750 2511 3984 
Q 2250 4219 1831 4219 
Q 1534 4219 1204 4116 
Q 875 4013 500 3803 
L 500 4441 
Q 881 4594 1212 4672 
Q 1544 4750 1819 4750 
Q 2544 4750 2975 4387 
Q 3406 4025 3406 3419 
Q 3406 3131 3298 2873 
Q 3191 2616 2906 2266 
Q 2828 2175 2409 1742 
Q 1991 1309 1228 531 
z
" transform="scale(0.015625)"/>
     </defs>
     <use xlink:href="#DejaVuSans-32"/>
    </g>
   </g>
   <g id="text_7">
    <!-- 3 -->
    <g transform="translate(188.088899 231.300271)scale(0.1 -0.1)">
     <use xlink:href="#DejaVuSans-33"/>
    </g>
   </g>
   <g id="text_8">
    <!-- 5 -->
    <g transform="translate(167.778451 258.380868)scale(0.1 -0.1)">
     <defs>
      <path id="DejaVuSans-35" d="M 691 4666 
L 3169 4666 
L 3169 4134 
L 1269 4134 
L 1269 2991 
Q 1406 3038 1543 3061 
Q 1681 3084 1819 3084 
Q 2600 3084 3056 2656 
Q 3513 2228 3513 1497 
Q 3513 744 3044 326 
Q 2575 -91 1722 -91 
Q 1428 -91 1123 -41 
Q 819 9 494 109 
L 494 744 
Q 775 591 1075 516 
Q 1375 441 1709 441 
Q 2250 441 2565 725 
Q 2881 1009 2881 1497 
Q 2881 1984 2565 2268 
Q 2250 2553 1709 2553 
Q 1456 2553 1204 2497 
Q 953 2441 691 2322 
L 691 4666 
z
" transform="scale(0.015625)"/>
     </defs>
     <use xlink:href="#DejaVuSans-35"/>
    </g>
   </g>
   <g id="text_9">
    <!-- 2 -->
    <g transform="translate(181.31875 258.380868)scale(0.1 -0.1)">
     <use xlink:href="#DejaVuSans-32"/>
    </g>
   </g>
   <g id="text_10">
    <!-- 3 -->
    <g transform="translate(194.859049 258.380868)scale(0.1 -0.1)">
     <use xlink:href="#DejaVuSans-33"/>
    </g>
   </g>
   <g id="text_11">
    <!-- 12 -->
    <g transform="translate(157.827052 285.461465)scale(0.1 -0.1)">
     <use xlink:href="#DejaVuSans-31"/>
     <use xlink:href="#DejaVuSans-32" x="63.623047"/>
    </g>
   </g>
   <g id="text_12">
    <!-- 5 -->
    <g transform="translate(174.548601 285.461465)scale(0.1 -0.1)">
     <use xlink:href="#DejaVuSans-35"/>
    </g>
   </g>
   <g id="text_13">
    <!-- 2 -->
    <g transform="translate(188.088899 285.461465)scale(0.1 -0.1)">
     <use xlink:href="#DejaVuSans-32"/>
    </g>
   </g>
   <g id="text_14">
    <!-- 3 -->
    <g transform="translate(201.629198 285.461465)scale(0.1 -0.1)">
     <use xlink:href="#DejaVuSans-33"/>
    </g>
   </g>
   <g id="text_15">
    <!-- 12 -->
    <g transform="translate(164.597201 312.542062)scale(0.1 -0.1)">
     <use xlink:href="#DejaVuSans-31"/>
     <use xlink:href="#DejaVuSans-32" x="63.623047"/>
    </g>
   </g>
   <g id="text_16">
    <!-- 5 -->
    <g transform="translate(181.31875 312.542062)scale(0.1 -0.1)">
     <use xlink:href="#DejaVuSans-35"/>
    </g>
   </g>
   <g id="text_17">
    <!-- 2 -->
    <g transform="translate(194.859049 312.542062)scale(0.1 -0.1)">
     <use xlink:href="#DejaVuSans-32"/>
    </g>
   </g>
   <g id="text_18">
    <!-- 12 -->
    <g transform="translate(171.367351 339.622659)scale(0.1 -0.1)">
     <use xlink:href="#DejaVuSans-31"/>
     <use xlink:href="#DejaVuSans-32" x="63.623047"/>
    </g>
   </g>
   <g id="text_19">
    <!-- 5 -->
    <g transform="translate(188.088899 339.622659)scale(0.1 -0.1)">
     <use xlink:href="#DejaVuSans-35"/>
    </g>
   </g>
   <g id="text_20">
    <!-- 3 -->
    <g transform="translate(167.778451 366.703256)scale(0.1 -0.1)">
     <use xlink:href="#DejaVuSans-33"/>
    </g>
   </g>
   <g id="text_21">
    <!-- 12 -->
    <g transform="translate(178.1375 366.703256)scale(0.1 -0.1)">
     <use xlink:href="#DejaVuSans-31"/>
     <use xlink:href="#DejaVuSans-32" x="63.623047"/>
    </g>
   </g>
   <g id="text_22">
    <!-- 5 -->
    <g transform="translate(194.859049 366.703256)scale(0.1 -0.1)">
     <use xlink:href="#DejaVuSans-35"/>
    </g>
   </g>
  </g>
 </g>
 <defs>
  <clipPath id="pae4718529b">
   <rect x="45" y="51.84" width="279" height="332.64"/>
  </clipPath>
 </defs>
</svg>
