<?xml version="1.0" encoding="utf-8" standalone="no"?>
<!DOCTYPE svg PUBLIC "-//W3C//DTD SVG 1.1//EN"
  "http://www.w3.org/Graphics/SVG/1.1/DTD/svg11.dtd">
<svg xmlns:xlink="http://www.w3.org/1999/xlink" width="360pt" height="504pt" viewBox="0 0 360 504" xmlns="http://www.w3.org/2000/svg" version="1.1">
 <metadata>
  <rdf:RDF xmlns:dc="http://purl.org/dc/elements/1.1/" xmlns:cc="http://creativecommons.org/ns#" xmlns:rdf="http://www.w3.org/1999/02/22-rdf-syntax-ns#">
   <cc:Work>
    <dc:type rdf:resource="http://purl.org/dc/dcmitype/StillImage"/>
    <dc:date>2023-04-28T09:57:46.289000</dc:date>
    <dc:format>image/svg+xml</dc:format>
    <dc:creator>
     <cc:Agent>
      <dc:title>Matplotlib v3.5.2, https://matplotlib.org/</dc:title>
     </cc:Agent>
    </dc:creator>
   </cc:Work>
  </rdf:RDF>
 </metadata>
 <defs>
  <style type="text/css">*{stroke-linejoin: round; stroke-linecap: butt}</style>
 </defs>
 <g id="figure_1">
  <g id="patch_1">
   <path d="M 0 504 
L 360 504 
L 360 0 
L 0 0 
z
" style="fill: #ffffff"/>
  </g>
  <g id="axes_1">
   <g id="patch_2">
    <path d="M 184.5 95.233433 
L 182.525373 91.284179 
L 184.421015 91.284179 
L 184.421015 87.334925 
L 184.578985 87.334925 
L 184.578985 91.284179 
L 186.474627 91.284179 
z
" clip-path="url(#p7a93aaea74)" style="stroke: #000000; stroke-linejoin: miter"/>
   </g>
   <g id="patch_3">
    <path d="M 176.601493 114.979701 
L 192.398507 114.979701 
L 192.398507 99.182687 
L 176.601493 99.182687 
L 176.601493 114.979701 
z
" style="fill: none; stroke: #000000; stroke-linejoin: miter"/>
   </g>
   <g id="patch_4">
    <path d="M 184.5 126.827463 
L 182.525373 122.878209 
L 184.421015 122.878209 
L 184.421015 118.928955 
L 184.578985 118.928955 
L 184.578985 122.878209 
L 186.474627 122.878209 
z
" clip-path="url(#p7a93aaea74)" style="stroke: #000000; stroke-linejoin: miter"/>
   </g>
   <g id="patch_5">
    <path d="M 168.702985 146.573731 
L 184.5 146.573731 
L 184.5 130.776716 
L 168.702985 130.776716 
L 168.702985 146.573731 
z
" style="fill: none; stroke: #000000; stroke-linejoin: miter"/>
   </g>
   <g id="patch_6">
    <path d="M 184.5 146.573731 
L 200.297015 146.573731 
L 200.297015 130.776716 
L 184.5 130.776716 
L 184.5 146.573731 
z
" style="fill: none; stroke: #000000; stroke-linejoin: miter"/>
   </g>
   <g id="patch_7">
    <path d="M 184.5 158.421493 
L 182.525373 154.472239 
L 184.421015 154.472239 
L 184.421015 150.522985 
L 184.578985 150.522985 
L 184.578985 154.472239 
L 186.474627 154.472239 
z
" clip-path="url(#p7a93aaea74)" style="stroke: #000000; stroke-linejoin: miter"/>
   </g>
   <g id="patch_8">
    <path d="M 176.601493 178.167761 
L 192.398507 178.167761 
L 192.398507 162.370746 
L 176.601493 162.370746 
L 176.601493 178.167761 
z
" style="fill: none; stroke: #000000; stroke-linejoin: miter"/>
   </g>
   <g id="patch_9">
    <path d="M 184.5 190.015522 
L 182.525373 186.066269 
L 184.421015 186.066269 
L 184.421015 182.117015 
L 184.578985 182.117015 
L 184.578985 186.066269 
L 186.474627 186.066269 
z
" clip-path="url(#p7a93aaea74)" style="stroke: #000000; stroke-linejoin: miter"/>
   </g>
   <g id="patch_10">
    <path d="M 184.5 221.609552 
L 182.525373 217.660299 
L 184.421015 217.660299 
L 184.421015 213.711045 
L 184.578985 213.711045 
L 184.578985 217.660299 
L 186.474627 217.660299 
z
" clip-path="url(#p7a93aaea74)" style="stroke: #000000; stroke-linejoin: miter"/>
   </g>
   <g id="patch_11">
    <path d="M 176.601493 241.355821 
L 192.398507 241.355821 
L 192.398507 225.558806 
L 176.601493 225.558806 
L 176.601493 241.355821 
z
" style="fill: none; stroke: #000000; stroke-linejoin: miter"/>
   </g>
   <g id="patch_12">
    <path d="M 184.5 253.203582 
L 182.525373 249.254328 
L 184.421015 249.254328 
L 184.421015 245.305075 
L 184.578985 245.305075 
L 184.578985 249.254328 
L 186.474627 249.254328 
z
" clip-path="url(#p7a93aaea74)" style="stroke: #000000; stroke-linejoin: miter"/>
   </g>
   <g id="patch_13">
    <path d="M 168.702985 272.949851 
L 184.5 272.949851 
L 184.5 257.152836 
L 168.702985 257.152836 
L 168.702985 272.949851 
z
" style="fill: none; stroke: #000000; stroke-linejoin: miter"/>
   </g>
   <g id="patch_14">
    <path d="M 184.5 272.949851 
L 200.297015 272.949851 
L 200.297015 257.152836 
L 184.5 257.152836 
L 184.5 272.949851 
z
" style="fill: none; stroke: #000000; stroke-linejoin: miter"/>
   </g>
   <g id="patch_15">
    <path d="M 184.5 284.797612 
L 182.525373 280.848358 
L 184.421015 280.848358 
L 184.421015 276.899104 
L 184.578985 276.899104 
L 184.578985 280.848358 
L 186.474627 280.848358 
z
" clip-path="url(#p7a93aaea74)" style="stroke: #000000; stroke-linejoin: miter"/>
   </g>
   <g id="patch_16">
    <path d="M 160.804478 304.543881 
L 176.601493 304.543881 
L 176.601493 288.746866 
L 160.804478 288.746866 
L 160.804478 304.543881 
z
" style="fill: none; stroke: #000000; stroke-linejoin: miter"/>
   </g>
   <g id="patch_17">
    <path d="M 176.601493 304.543881 
L 192.398507 304.543881 
L 192.398507 288.746866 
L 176.601493 288.746866 
L 176.601493 304.543881 
z
" style="fill: none; stroke: #000000; stroke-linejoin: miter"/>
   </g>
   <g id="patch_18">
    <path d="M 192.398507 304.543881 
L 208.195522 304.543881 
L 208.195522 288.746866 
L 192.398507 288.746866 
L 192.398507 304.543881 
z
" style="fill: none; stroke: #000000; stroke-linejoin: miter"/>
   </g>
   <g id="patch_19">
    <path d="M 184.5 316.391642 
L 182.525373 312.442388 
L 184.421015 312.442388 
L 184.421015 308.493134 
L 184.578985 308.493134 
L 184.578985 312.442388 
L 186.474627 312.442388 
z
" clip-path="url(#p7a93aaea74)" style="stroke: #000000; stroke-linejoin: miter"/>
   </g>
   <g id="patch_20">
    <path d="M 152.90597 336.13791 
L 168.702985 336.13791 
L 168.702985 320.340896 
L 152.90597 320.340896 
L 152.90597 336.13791 
z
" style="fill: none; stroke: #000000; stroke-linejoin: miter"/>
   </g>
   <g id="patch_21">
    <path d="M 168.702985 336.13791 
L 184.5 336.13791 
L 184.5 320.340896 
L 168.702985 320.340896 
L 168.702985 336.13791 
z
" style="fill: none; stroke: #000000; stroke-linejoin: miter"/>
   </g>
   <g id="patch_22">
    <path d="M 184.5 336.13791 
L 200.297015 336.13791 
L 200.297015 320.340896 
L 184.5 320.340896 
L 184.5 336.13791 
z
" style="fill: none; stroke: #000000; stroke-linejoin: miter"/>
   </g>
   <g id="patch_23">
    <path d="M 200.297015 336.13791 
L 216.09403 336.13791 
L 216.09403 320.340896 
L 200.297015 320.340896 
L 200.297015 336.13791 
z
" style="fill: none; stroke: #000000; stroke-linejoin: miter"/>
   </g>
   <g id="patch_24">
    <path d="M 184.5 347.985672 
L 182.525373 344.036418 
L 184.421015 344.036418 
L 184.421015 340.087164 
L 184.578985 340.087164 
L 184.578985 344.036418 
L 186.474627 344.036418 
z
" clip-path="url(#p7a93aaea74)" style="stroke: #000000; stroke-linejoin: miter"/>
   </g>
   <g id="patch_25">
    <path d="M 160.804478 367.73194 
L 176.601493 367.73194 
L 176.601493 351.934925 
L 160.804478 351.934925 
L 160.804478 367.73194 
z
" style="fill: none; stroke: #000000; stroke-linejoin: miter"/>
   </g>
   <g id="patch_26">
    <path d="M 176.601493 367.73194 
L 192.398507 367.73194 
L 192.398507 351.934925 
L 176.601493 351.934925 
L 176.601493 367.73194 
z
" style="fill: none; stroke: #000000; stroke-linejoin: miter"/>
   </g>
   <g id="patch_27">
    <path d="M 192.398507 367.73194 
L 208.195522 367.73194 
L 208.195522 351.934925 
L 192.398507 351.934925 
L 192.398507 367.73194 
z
" style="fill: none; stroke: #000000; stroke-linejoin: miter"/>
   </g>
   <g id="patch_28">
    <path d="M 184.5 379.579701 
L 182.525373 375.630448 
L 184.421015 375.630448 
L 184.421015 371.681194 
L 184.578985 371.681194 
L 184.578985 375.630448 
L 186.474627 375.630448 
z
" clip-path="url(#p7a93aaea74)" style="stroke: #000000; stroke-linejoin: miter"/>
   </g>
   <g id="patch_29">
    <path d="M 168.702985 399.32597 
L 184.5 399.32597 
L 184.5 383.528955 
L 168.702985 383.528955 
L 168.702985 399.32597 
z
" style="fill: none; stroke: #000000; stroke-linejoin: miter"/>
   </g>
   <g id="patch_30">
    <path d="M 184.5 399.32597 
L 200.297015 399.32597 
L 200.297015 383.528955 
L 184.5 383.528955 
L 184.5 399.32597 
z
" style="fill: none; stroke: #000000; stroke-linejoin: miter"/>
   </g>
   <g id="patch_31">
    <path d="M 184.5 411.173731 
L 182.525373 407.224478 
L 184.421015 407.224478 
L 184.421015 403.275224 
L 184.578985 403.275224 
L 184.578985 407.224478 
L 186.474627 407.224478 
z
" clip-path="url(#p7a93aaea74)" style="stroke: #000000; stroke-linejoin: miter"/>
   </g>
   <g id="patch_32">
    <path d="M 160.804478 430.92 
L 176.601493 430.92 
L 176.601493 415.122985 
L 160.804478 415.122985 
L 160.804478 430.92 
z
" style="fill: none; stroke: #000000; stroke-linejoin: miter"/>
   </g>
   <g id="patch_33">
    <path d="M 176.601493 430.92 
L 192.398507 430.92 
L 192.398507 415.122985 
L 176.601493 415.122985 
L 176.601493 430.92 
z
" style="fill: none; stroke: #000000; stroke-linejoin: miter"/>
   </g>
   <g id="patch_34">
    <path d="M 192.398507 430.92 
L 208.195522 430.92 
L 208.195522 415.122985 
L 192.398507 415.122985 
L 192.398507 430.92 
z
" style="fill: none; stroke: #000000; stroke-linejoin: miter"/>
   </g>
   <g id="line2d_1">
    <path d="M 192.398507 78.12 
L 192.398507 82.069254 
L 176.601493 82.069254 
L 176.601493 78.12 
" clip-path="url(#p7a93aaea74)" style="fill: none; stroke: #000000; stroke-width: 1.5; stroke-linecap: square"/>
   </g>
   <g id="line2d_2">
    <path d="M 192.398507 204.496119 
L 192.398507 208.445373 
L 176.601493 208.445373 
L 176.601493 204.496119 
" clip-path="url(#p7a93aaea74)" style="fill: none; stroke: #000000; stroke-width: 1.5; stroke-linecap: square"/>
   </g>
   <g id="text_1">
    <!-- 4 -->
    <g transform="translate(181.31875 111.420271)scale(0.1 -0.1)">
     <defs>
      <path id="DejaVuSans-34" d="M 2419 4116 
L 825 1625 
L 2419 1625 
L 2419 4116 
z
M 2253 4666 
L 3047 4666 
L 3047 1625 
L 3713 1625 
L 3713 1100 
L 3047 1100 
L 3047 0 
L 2419 0 
L 2419 1100 
L 313 1100 
L 313 1709 
L 2253 4666 
z
" transform="scale(0.015625)"/>
     </defs>
     <use xlink:href="#DejaVuSans-34"/>
    </g>
   </g>
   <g id="text_2">
    <!-- 10 -->
    <g transform="translate(170.238993 143.0143)scale(0.1 -0.1)">
     <defs>
      <path id="DejaVuSans-31" d="M 794 531 
L 1825 531 
L 1825 4091 
L 703 3866 
L 703 4441 
L 1819 4666 
L 2450 4666 
L 2450 531 
L 3481 531 
L 3481 0 
L 794 0 
L 794 531 
z
" transform="scale(0.015625)"/>
      <path id="DejaVuSans-30" d="M 2034 4250 
Q 1547 4250 1301 3770 
Q 1056 3291 1056 2328 
Q 1056 1369 1301 889 
Q 1547 409 2034 409 
Q 2525 409 2770 889 
Q 3016 1369 3016 2328 
Q 3016 3291 2770 3770 
Q 2525 4250 2034 4250 
z
M 2034 4750 
Q 2819 4750 3233 4129 
Q 3647 3509 3647 2328 
Q 3647 1150 3233 529 
Q 2819 -91 2034 -91 
Q 1250 -91 836 529 
Q 422 1150 422 2328 
Q 422 3509 836 4129 
Q 1250 4750 2034 4750 
z
" transform="scale(0.015625)"/>
     </defs>
     <use xlink:href="#DejaVuSans-31"/>
     <use xlink:href="#DejaVuSans-30" x="63.623047"/>
    </g>
   </g>
   <g id="text_3">
    <!-- 4 -->
    <g transform="translate(189.217257 143.0143)scale(0.1 -0.1)">
     <use xlink:href="#DejaVuSans-34"/>
    </g>
   </g>
   <g id="text_4">
    <!-- 10 -->
    <g transform="translate(178.1375 174.60833)scale(0.1 -0.1)">
     <use xlink:href="#DejaVuSans-31"/>
     <use xlink:href="#DejaVuSans-30" x="63.623047"/>
    </g>
   </g>
   <g id="text_5">
    <!-- 3 -->
    <g transform="translate(181.31875 237.79639)scale(0.1 -0.1)">
     <defs>
      <path id="DejaVuSans-33" d="M 2597 2516 
Q 3050 2419 3304 2112 
Q 3559 1806 3559 1356 
Q 3559 666 3084 287 
Q 2609 -91 1734 -91 
Q 1441 -91 1130 -33 
Q 819 25 488 141 
L 488 750 
Q 750 597 1062 519 
Q 1375 441 1716 441 
Q 2309 441 2620 675 
Q 2931 909 2931 1356 
Q 2931 1769 2642 2001 
Q 2353 2234 1838 2234 
L 1294 2234 
L 1294 2753 
L 1863 2753 
Q 2328 2753 2575 2939 
Q 2822 3125 2822 3475 
Q 2822 3834 2567 4026 
Q 2313 4219 1838 4219 
Q 1578 4219 1281 4162 
Q 984 4106 628 3988 
L 628 4550 
Q 988 4650 1302 4700 
Q 1616 4750 1894 4750 
Q 2613 4750 3031 4423 
Q 3450 4097 3450 3541 
Q 3450 3153 3228 2886 
Q 3006 2619 2597 2516 
z
" transform="scale(0.015625)"/>
     </defs>
     <use xlink:href="#DejaVuSans-33"/>
    </g>
   </g>
   <g id="text_6">
    <!-- 2 -->
    <g transform="translate(173.420243 269.39042)scale(0.1 -0.1)">
     <defs>
      <path id="DejaVuSans-32" d="M 1228 531 
L 3431 531 
L 3431 0 
L 469 0 
L 469 531 
Q 828 903 1448 1529 
Q 2069 2156 2228 2338 
Q 2531 2678 2651 2914 
Q 2772 3150 2772 3378 
Q 2772 3750 2511 3984 
Q 2250 4219 1831 4219 
Q 1534 4219 1204 4116 
Q 875 4013 500 3803 
L 500 4441 
Q 881 4594 1212 4672 
Q 1544 4750 1819 4750 
Q 2544 4750 2975 4387 
Q 3406 4025 3406 3419 
Q 3406 3131 3298 2873 
Q 3191 2616 2906 2266 
Q 2828 2175 2409 1742 
Q 1991 1309 1228 531 
z
" transform="scale(0.015625)"/>
     </defs>
     <use xlink:href="#DejaVuSans-32"/>
    </g>
   </g>
   <g id="text_7">
    <!-- 3 -->
    <g transform="translate(189.217257 269.39042)scale(0.1 -0.1)">
     <use xlink:href="#DejaVuSans-33"/>
    </g>
   </g>
   <g id="text_8">
    <!-- 5 -->
    <g transform="translate(165.521735 300.98445)scale(0.1 -0.1)">
     <defs>
      <path id="DejaVuSans-35" d="M 691 4666 
L 3169 4666 
L 3169 4134 
L 1269 4134 
L 1269 2991 
Q 1406 3038 1543 3061 
Q 1681 3084 1819 3084 
Q 2600 3084 3056 2656 
Q 3513 2228 3513 1497 
Q 3513 744 3044 326 
Q 2575 -91 1722 -91 
Q 1428 -91 1123 -41 
Q 819 9 494 109 
L 494 744 
Q 775 591 1075 516 
Q 1375 441 1709 441 
Q 2250 441 2565 725 
Q 2881 1009 2881 1497 
Q 2881 1984 2565 2268 
Q 2250 2553 1709 2553 
Q 1456 2553 1204 2497 
Q 953 2441 691 2322 
L 691 4666 
z
" transform="scale(0.015625)"/>
     </defs>
     <use xlink:href="#DejaVuSans-35"/>
    </g>
   </g>
   <g id="text_9">
    <!-- 2 -->
    <g transform="translate(181.31875 300.98445)scale(0.1 -0.1)">
     <use xlink:href="#DejaVuSans-32"/>
    </g>
   </g>
   <g id="text_10">
    <!-- 3 -->
    <g transform="translate(197.115765 300.98445)scale(0.1 -0.1)">
     <use xlink:href="#DejaVuSans-33"/>
    </g>
   </g>
   <g id="text_11">
    <!-- 12 -->
    <g transform="translate(154.441978 332.578479)scale(0.1 -0.1)">
     <use xlink:href="#DejaVuSans-31"/>
     <use xlink:href="#DejaVuSans-32" x="63.623047"/>
    </g>
   </g>
   <g id="text_12">
    <!-- 5 -->
    <g transform="translate(173.420243 332.578479)scale(0.1 -0.1)">
     <use xlink:href="#DejaVuSans-35"/>
    </g>
   </g>
   <g id="text_13">
    <!-- 2 -->
    <g transform="translate(189.217257 332.578479)scale(0.1 -0.1)">
     <use xlink:href="#DejaVuSans-32"/>
    </g>
   </g>
   <g id="text_14">
    <!-- 3 -->
    <g transform="translate(205.014272 332.578479)scale(0.1 -0.1)">
     <use xlink:href="#DejaVuSans-33"/>
    </g>
   </g>
   <g id="text_15">
    <!-- 12 -->
    <g transform="translate(162.340485 364.172509)scale(0.1 -0.1)">
     <use xlink:href="#DejaVuSans-31"/>
     <use xlink:href="#DejaVuSans-32" x="63.623047"/>
    </g>
   </g>
   <g id="text_16">
    <!-- 5 -->
    <g transform="translate(181.31875 364.172509)scale(0.1 -0.1)">
     <use xlink:href="#DejaVuSans-35"/>
    </g>
   </g>
   <g id="text_17">
    <!-- 2 -->
    <g transform="translate(197.115765 364.172509)scale(0.1 -0.1)">
     <use xlink:href="#DejaVuSans-32"/>
    </g>
   </g>
   <g id="text_18">
    <!-- 12 -->
    <g transform="translate(170.238993 395.766539)scale(0.1 -0.1)">
     <use xlink:href="#DejaVuSans-31"/>
     <use xlink:href="#DejaVuSans-32" x="63.623047"/>
    </g>
   </g>
   <g id="text_19">
    <!-- 5 -->
    <g transform="translate(189.217257 395.766539)scale(0.1 -0.1)">
     <use xlink:href="#DejaVuSans-35"/>
    </g>
   </g>
   <g id="text_20">
    <!-- 3 -->
    <g transform="translate(165.521735 427.360569)scale(0.1 -0.1)">
     <use xlink:href="#DejaVuSans-33"/>
    </g>
   </g>
   <g id="text_21">
    <!-- 12 -->
    <g transform="translate(178.1375 427.360569)scale(0.1 -0.1)">
     <use xlink:href="#DejaVuSans-31"/>
     <use xlink:href="#DejaVuSans-32" x="63.623047"/>
    </g>
   </g>
   <g id="text_22">
    <!-- 5 -->
    <g transform="translate(197.115765 427.360569)scale(0.1 -0.1)">
     <use xlink:href="#DejaVuSans-35"/>
    </g>
   </g>
  </g>
 </g>
 <defs>
  <clipPath id="p7a93aaea74">
   <rect x="45" y="60.48" width="279" height="388.08"/>
  </clipPath>
 </defs>
</svg>
