<?xml version="1.0" encoding="utf-8" standalone="no"?>
<!DOCTYPE svg PUBLIC "-//W3C//DTD SVG 1.1//EN"
  "http://www.w3.org/Graphics/SVG/1.1/DTD/svg11.dtd">
<svg xmlns:xlink="http://www.w3.org/1999/xlink" width="648pt" height="108pt" viewBox="0 0 648 108" xmlns="http://www.w3.org/2000/svg" version="1.1">
 <metadata>
  <rdf:RDF xmlns:dc="http://purl.org/dc/elements/1.1/" xmlns:cc="http://creativecommons.org/ns#" xmlns:rdf="http://www.w3.org/1999/02/22-rdf-syntax-ns#">
   <cc:Work>
    <dc:type rdf:resource="http://purl.org/dc/dcmitype/StillImage"/>
    <dc:date>2023-04-28T09:27:03.101000</dc:date>
    <dc:format>image/svg+xml</dc:format>
    <dc:creator>
     <cc:Agent>
      <dc:title>Matplotlib v3.5.2, https://matplotlib.org/</dc:title>
     </cc:Agent>
    </dc:creator>
   </cc:Work>
  </rdf:RDF>
 </metadata>
 <defs>
  <style type="text/css">*{stroke-linejoin: round; stroke-linecap: butt}</style>
 </defs>
 <g id="figure_1">
  <g id="patch_1">
   <path d="M 0 108 
L 648 108 
L 648 0 
L 0 0 
z
" style="fill: #ffffff"/>
  </g>
  <g id="axes_1">
   <g id="patch_2">
    <path d="M 135.86555 78.568708 
L 131.860766 80.5711 
L 131.860766 78.648804 
L 127.855981 78.648804 
L 127.855981 78.488612 
L 131.860766 78.488612 
L 131.860766 76.566316 
z
" clip-path="url(#p3a065a036f)" style="stroke: #000000; stroke-linejoin: miter"/>
   </g>
   <g id="patch_3">
    <path d="M 143.87512 86.578278 
L 159.894258 86.578278 
L 159.894258 70.559139 
L 143.87512 70.559139 
L 143.87512 86.578278 
z
" style="fill: none; stroke: #000000; stroke-linejoin: miter"/>
   </g>
   <g id="patch_4">
    <path d="M 175.913397 78.568708 
L 171.908612 80.5711 
L 171.908612 78.648804 
L 167.903828 78.648804 
L 167.903828 78.488612 
L 171.908612 78.488612 
L 171.908612 76.566316 
z
" clip-path="url(#p3a065a036f)" style="stroke: #000000; stroke-linejoin: miter"/>
   </g>
   <g id="patch_5">
    <path d="M 183.922967 86.578278 
L 199.942105 86.578278 
L 199.942105 70.559139 
L 183.922967 70.559139 
L 183.922967 86.578278 
z
" style="fill: none; stroke: #000000; stroke-linejoin: miter"/>
   </g>
   <g id="patch_6">
    <path d="M 183.922967 70.559139 
L 199.942105 70.559139 
L 199.942105 54.54 
L 183.922967 54.54 
L 183.922967 70.559139 
z
" style="fill: none; stroke: #000000; stroke-linejoin: miter"/>
   </g>
   <g id="patch_7">
    <path d="M 215.961244 78.568708 
L 211.956459 80.5711 
L 211.956459 78.648804 
L 207.951675 78.648804 
L 207.951675 78.488612 
L 211.956459 78.488612 
L 211.956459 76.566316 
z
" clip-path="url(#p3a065a036f)" style="stroke: #000000; stroke-linejoin: miter"/>
   </g>
   <g id="patch_8">
    <path d="M 223.970813 86.578278 
L 239.989952 86.578278 
L 239.989952 70.559139 
L 223.970813 70.559139 
L 223.970813 86.578278 
z
" style="fill: none; stroke: #000000; stroke-linejoin: miter"/>
   </g>
   <g id="patch_9">
    <path d="M 256.009091 78.568708 
L 252.004306 80.5711 
L 252.004306 78.648804 
L 247.999522 78.648804 
L 247.999522 78.488612 
L 252.004306 78.488612 
L 252.004306 76.566316 
z
" clip-path="url(#p3a065a036f)" style="stroke: #000000; stroke-linejoin: miter"/>
   </g>
   <g id="patch_10">
    <path d="M 296.056938 78.568708 
L 292.052153 80.5711 
L 292.052153 78.648804 
L 288.047368 78.648804 
L 288.047368 78.488612 
L 292.052153 78.488612 
L 292.052153 76.566316 
z
" clip-path="url(#p3a065a036f)" style="stroke: #000000; stroke-linejoin: miter"/>
   </g>
   <g id="patch_11">
    <path d="M 304.066507 86.578278 
L 320.085646 86.578278 
L 320.085646 70.559139 
L 304.066507 70.559139 
L 304.066507 86.578278 
z
" style="fill: none; stroke: #000000; stroke-linejoin: miter"/>
   </g>
   <g id="patch_12">
    <path d="M 336.104785 78.568708 
L 332.1 80.5711 
L 332.1 78.648804 
L 328.095215 78.648804 
L 328.095215 78.488612 
L 332.1 78.488612 
L 332.1 76.566316 
z
" clip-path="url(#p3a065a036f)" style="stroke: #000000; stroke-linejoin: miter"/>
   </g>
   <g id="patch_13">
    <path d="M 344.114354 86.578278 
L 360.133493 86.578278 
L 360.133493 70.559139 
L 344.114354 70.559139 
L 344.114354 86.578278 
z
" style="fill: none; stroke: #000000; stroke-linejoin: miter"/>
   </g>
   <g id="patch_14">
    <path d="M 344.114354 70.559139 
L 360.133493 70.559139 
L 360.133493 54.54 
L 344.114354 54.54 
L 344.114354 70.559139 
z
" style="fill: none; stroke: #000000; stroke-linejoin: miter"/>
   </g>
   <g id="patch_15">
    <path d="M 376.152632 78.568708 
L 372.147847 80.5711 
L 372.147847 78.648804 
L 368.143062 78.648804 
L 368.143062 78.488612 
L 372.147847 78.488612 
L 372.147847 76.566316 
z
" clip-path="url(#p3a065a036f)" style="stroke: #000000; stroke-linejoin: miter"/>
   </g>
   <g id="patch_16">
    <path d="M 384.162201 86.578278 
L 400.18134 86.578278 
L 400.18134 70.559139 
L 384.162201 70.559139 
L 384.162201 86.578278 
z
" style="fill: none; stroke: #000000; stroke-linejoin: miter"/>
   </g>
   <g id="patch_17">
    <path d="M 384.162201 70.559139 
L 400.18134 70.559139 
L 400.18134 54.54 
L 384.162201 54.54 
L 384.162201 70.559139 
z
" style="fill: none; stroke: #000000; stroke-linejoin: miter"/>
   </g>
   <g id="patch_18">
    <path d="M 384.162201 54.54 
L 400.18134 54.54 
L 400.18134 38.520861 
L 384.162201 38.520861 
L 384.162201 54.54 
z
" style="fill: none; stroke: #000000; stroke-linejoin: miter"/>
   </g>
   <g id="patch_19">
    <path d="M 416.200478 78.568708 
L 412.195694 80.5711 
L 412.195694 78.648804 
L 408.190909 78.648804 
L 408.190909 78.488612 
L 412.195694 78.488612 
L 412.195694 76.566316 
z
" clip-path="url(#p3a065a036f)" style="stroke: #000000; stroke-linejoin: miter"/>
   </g>
   <g id="patch_20">
    <path d="M 424.210048 86.578278 
L 440.229187 86.578278 
L 440.229187 70.559139 
L 424.210048 70.559139 
L 424.210048 86.578278 
z
" style="fill: none; stroke: #000000; stroke-linejoin: miter"/>
   </g>
   <g id="patch_21">
    <path d="M 424.210048 70.559139 
L 440.229187 70.559139 
L 440.229187 54.54 
L 424.210048 54.54 
L 424.210048 70.559139 
z
" style="fill: none; stroke: #000000; stroke-linejoin: miter"/>
   </g>
   <g id="patch_22">
    <path d="M 424.210048 54.54 
L 440.229187 54.54 
L 440.229187 38.520861 
L 424.210048 38.520861 
L 424.210048 54.54 
z
" style="fill: none; stroke: #000000; stroke-linejoin: miter"/>
   </g>
   <g id="patch_23">
    <path d="M 424.210048 38.520861 
L 440.229187 38.520861 
L 440.229187 22.501722 
L 424.210048 22.501722 
L 424.210048 38.520861 
z
" style="fill: none; stroke: #000000; stroke-linejoin: miter"/>
   </g>
   <g id="patch_24">
    <path d="M 456.248325 78.568708 
L 452.243541 80.5711 
L 452.243541 78.648804 
L 448.238756 78.648804 
L 448.238756 78.488612 
L 452.243541 78.488612 
L 452.243541 76.566316 
z
" clip-path="url(#p3a065a036f)" style="stroke: #000000; stroke-linejoin: miter"/>
   </g>
   <g id="patch_25">
    <path d="M 464.257895 86.578278 
L 480.277033 86.578278 
L 480.277033 70.559139 
L 464.257895 70.559139 
L 464.257895 86.578278 
z
" style="fill: none; stroke: #000000; stroke-linejoin: miter"/>
   </g>
   <g id="patch_26">
    <path d="M 464.257895 70.559139 
L 480.277033 70.559139 
L 480.277033 54.54 
L 464.257895 54.54 
L 464.257895 70.559139 
z
" style="fill: none; stroke: #000000; stroke-linejoin: miter"/>
   </g>
   <g id="patch_27">
    <path d="M 464.257895 54.54 
L 480.277033 54.54 
L 480.277033 38.520861 
L 464.257895 38.520861 
L 464.257895 54.54 
z
" style="fill: none; stroke: #000000; stroke-linejoin: miter"/>
   </g>
   <g id="patch_28">
    <path d="M 496.296172 78.568708 
L 492.291388 80.5711 
L 492.291388 78.648804 
L 488.286603 78.648804 
L 488.286603 78.488612 
L 492.291388 78.488612 
L 492.291388 76.566316 
z
" clip-path="url(#p3a065a036f)" style="stroke: #000000; stroke-linejoin: miter"/>
   </g>
   <g id="patch_29">
    <path d="M 504.305742 86.578278 
L 520.32488 86.578278 
L 520.32488 70.559139 
L 504.305742 70.559139 
L 504.305742 86.578278 
z
" style="fill: none; stroke: #000000; stroke-linejoin: miter"/>
   </g>
   <g id="patch_30">
    <path d="M 504.305742 70.559139 
L 520.32488 70.559139 
L 520.32488 54.54 
L 504.305742 54.54 
L 504.305742 70.559139 
z
" style="fill: none; stroke: #000000; stroke-linejoin: miter"/>
   </g>
   <g id="patch_31">
    <path d="M 536.344019 78.568708 
L 532.339234 80.5711 
L 532.339234 78.648804 
L 528.33445 78.648804 
L 528.33445 78.488612 
L 532.339234 78.488612 
L 532.339234 76.566316 
z
" clip-path="url(#p3a065a036f)" style="stroke: #000000; stroke-linejoin: miter"/>
   </g>
   <g id="patch_32">
    <path d="M 544.353589 86.578278 
L 560.372727 86.578278 
L 560.372727 70.559139 
L 544.353589 70.559139 
L 544.353589 86.578278 
z
" style="fill: none; stroke: #000000; stroke-linejoin: miter"/>
   </g>
   <g id="patch_33">
    <path d="M 544.353589 70.559139 
L 560.372727 70.559139 
L 560.372727 54.54 
L 544.353589 54.54 
L 544.353589 70.559139 
z
" style="fill: none; stroke: #000000; stroke-linejoin: miter"/>
   </g>
   <g id="patch_34">
    <path d="M 544.353589 54.54 
L 560.372727 54.54 
L 560.372727 38.520861 
L 544.353589 38.520861 
L 544.353589 54.54 
z
" style="fill: none; stroke: #000000; stroke-linejoin: miter"/>
   </g>
   <g id="line2d_1">
    <path d="M 103.827273 82.573493 
L 103.827273 86.578278 
L 119.846411 86.578278 
L 119.846411 82.573493 
" clip-path="url(#p3a065a036f)" style="fill: none; stroke: #000000; stroke-width: 1.5; stroke-linecap: square"/>
   </g>
   <g id="line2d_2">
    <path d="M 264.01866 82.573493 
L 264.01866 86.578278 
L 280.037799 86.578278 
L 280.037799 82.573493 
" clip-path="url(#p3a065a036f)" style="fill: none; stroke: #000000; stroke-width: 1.5; stroke-linecap: square"/>
   </g>
   <g id="text_1">
    <!-- 4 -->
    <g transform="translate(148.703439 81.328083)scale(0.1 -0.1)">
     <defs>
      <path id="DejaVuSans-34" d="M 2419 4116 
L 825 1625 
L 2419 1625 
L 2419 4116 
z
M 2253 4666 
L 3047 4666 
L 3047 1625 
L 3713 1625 
L 3713 1100 
L 3047 1100 
L 3047 0 
L 2419 0 
L 2419 1100 
L 313 1100 
L 313 1709 
L 2253 4666 
z
" transform="scale(0.015625)"/>
     </defs>
     <use xlink:href="#DejaVuSans-34"/>
    </g>
   </g>
   <g id="text_2">
    <!-- 4 -->
    <g transform="translate(188.751286 81.328083)scale(0.1 -0.1)">
     <use xlink:href="#DejaVuSans-34"/>
    </g>
   </g>
   <g id="text_3">
    <!-- 10 -->
    <g transform="translate(185.570036 65.308944)scale(0.1 -0.1)">
     <defs>
      <path id="DejaVuSans-31" d="M 794 531 
L 1825 531 
L 1825 4091 
L 703 3866 
L 703 4441 
L 1819 4666 
L 2450 4666 
L 2450 531 
L 3481 531 
L 3481 0 
L 794 0 
L 794 531 
z
" transform="scale(0.015625)"/>
      <path id="DejaVuSans-30" d="M 2034 4250 
Q 1547 4250 1301 3770 
Q 1056 3291 1056 2328 
Q 1056 1369 1301 889 
Q 1547 409 2034 409 
Q 2525 409 2770 889 
Q 3016 1369 3016 2328 
Q 3016 3291 2770 3770 
Q 2525 4250 2034 4250 
z
M 2034 4750 
Q 2819 4750 3233 4129 
Q 3647 3509 3647 2328 
Q 3647 1150 3233 529 
Q 2819 -91 2034 -91 
Q 1250 -91 836 529 
Q 422 1150 422 2328 
Q 422 3509 836 4129 
Q 1250 4750 2034 4750 
z
" transform="scale(0.015625)"/>
     </defs>
     <use xlink:href="#DejaVuSans-31"/>
     <use xlink:href="#DejaVuSans-30" x="63.623047"/>
    </g>
   </g>
   <g id="text_4">
    <!-- 4 -->
    <g transform="translate(228.799133 81.328083)scale(0.1 -0.1)">
     <use xlink:href="#DejaVuSans-34"/>
    </g>
   </g>
   <g id="text_5">
    <!-- 5 -->
    <g transform="translate(308.894827 81.328083)scale(0.1 -0.1)">
     <defs>
      <path id="DejaVuSans-35" d="M 691 4666 
L 3169 4666 
L 3169 4134 
L 1269 4134 
L 1269 2991 
Q 1406 3038 1543 3061 
Q 1681 3084 1819 3084 
Q 2600 3084 3056 2656 
Q 3513 2228 3513 1497 
Q 3513 744 3044 326 
Q 2575 -91 1722 -91 
Q 1428 -91 1123 -41 
Q 819 9 494 109 
L 494 744 
Q 775 591 1075 516 
Q 1375 441 1709 441 
Q 2250 441 2565 725 
Q 2881 1009 2881 1497 
Q 2881 1984 2565 2268 
Q 2250 2553 1709 2553 
Q 1456 2553 1204 2497 
Q 953 2441 691 2322 
L 691 4666 
z
" transform="scale(0.015625)"/>
     </defs>
     <use xlink:href="#DejaVuSans-35"/>
    </g>
   </g>
   <g id="text_6">
    <!-- 5 -->
    <g transform="translate(348.942673 81.328083)scale(0.1 -0.1)">
     <use xlink:href="#DejaVuSans-35"/>
    </g>
   </g>
   <g id="text_7">
    <!-- 12 -->
    <g transform="translate(345.761423 65.308944)scale(0.1 -0.1)">
     <defs>
      <path id="DejaVuSans-32" d="M 1228 531 
L 3431 531 
L 3431 0 
L 469 0 
L 469 531 
Q 828 903 1448 1529 
Q 2069 2156 2228 2338 
Q 2531 2678 2651 2914 
Q 2772 3150 2772 3378 
Q 2772 3750 2511 3984 
Q 2250 4219 1831 4219 
Q 1534 4219 1204 4116 
Q 875 4013 500 3803 
L 500 4441 
Q 881 4594 1212 4672 
Q 1544 4750 1819 4750 
Q 2544 4750 2975 4387 
Q 3406 4025 3406 3419 
Q 3406 3131 3298 2873 
Q 3191 2616 2906 2266 
Q 2828 2175 2409 1742 
Q 1991 1309 1228 531 
z
" transform="scale(0.015625)"/>
     </defs>
     <use xlink:href="#DejaVuSans-31"/>
     <use xlink:href="#DejaVuSans-32" x="63.623047"/>
    </g>
   </g>
   <g id="text_8">
    <!-- 5 -->
    <g transform="translate(388.99052 81.328083)scale(0.1 -0.1)">
     <use xlink:href="#DejaVuSans-35"/>
    </g>
   </g>
   <g id="text_9">
    <!-- 12 -->
    <g transform="translate(385.80927 65.308944)scale(0.1 -0.1)">
     <use xlink:href="#DejaVuSans-31"/>
     <use xlink:href="#DejaVuSans-32" x="63.623047"/>
    </g>
   </g>
   <g id="text_10">
    <!-- 2 -->
    <g transform="translate(388.99052 49.289806)scale(0.1 -0.1)">
     <use xlink:href="#DejaVuSans-32"/>
    </g>
   </g>
   <g id="text_11">
    <!-- 5 -->
    <g transform="translate(429.038367 81.328083)scale(0.1 -0.1)">
     <use xlink:href="#DejaVuSans-35"/>
    </g>
   </g>
   <g id="text_12">
    <!-- 12 -->
    <g transform="translate(425.857117 65.308944)scale(0.1 -0.1)">
     <use xlink:href="#DejaVuSans-31"/>
     <use xlink:href="#DejaVuSans-32" x="63.623047"/>
    </g>
   </g>
   <g id="text_13">
    <!-- 2 -->
    <g transform="translate(429.038367 49.289806)scale(0.1 -0.1)">
     <use xlink:href="#DejaVuSans-32"/>
    </g>
   </g>
   <g id="text_14">
    <!-- 3 -->
    <g transform="translate(429.038367 33.270667)scale(0.1 -0.1)">
     <defs>
      <path id="DejaVuSans-33" d="M 2597 2516 
Q 3050 2419 3304 2112 
Q 3559 1806 3559 1356 
Q 3559 666 3084 287 
Q 2609 -91 1734 -91 
Q 1441 -91 1130 -33 
Q 819 25 488 141 
L 488 750 
Q 750 597 1062 519 
Q 1375 441 1716 441 
Q 2309 441 2620 675 
Q 2931 909 2931 1356 
Q 2931 1769 2642 2001 
Q 2353 2234 1838 2234 
L 1294 2234 
L 1294 2753 
L 1863 2753 
Q 2328 2753 2575 2939 
Q 2822 3125 2822 3475 
Q 2822 3834 2567 4026 
Q 2313 4219 1838 4219 
Q 1578 4219 1281 4162 
Q 984 4106 628 3988 
L 628 4550 
Q 988 4650 1302 4700 
Q 1616 4750 1894 4750 
Q 2613 4750 3031 4423 
Q 3450 4097 3450 3541 
Q 3450 3153 3228 2886 
Q 3006 2619 2597 2516 
z
" transform="scale(0.015625)"/>
     </defs>
     <use xlink:href="#DejaVuSans-33"/>
    </g>
   </g>
   <g id="text_15">
    <!-- 5 -->
    <g transform="translate(469.086214 81.328083)scale(0.1 -0.1)">
     <use xlink:href="#DejaVuSans-35"/>
    </g>
   </g>
   <g id="text_16">
    <!-- 12 -->
    <g transform="translate(465.904964 65.308944)scale(0.1 -0.1)">
     <use xlink:href="#DejaVuSans-31"/>
     <use xlink:href="#DejaVuSans-32" x="63.623047"/>
    </g>
   </g>
   <g id="text_17">
    <!-- 2 -->
    <g transform="translate(469.086214 49.289806)scale(0.1 -0.1)">
     <use xlink:href="#DejaVuSans-32"/>
    </g>
   </g>
   <g id="text_18">
    <!-- 5 -->
    <g transform="translate(509.134061 81.328083)scale(0.1 -0.1)">
     <use xlink:href="#DejaVuSans-35"/>
    </g>
   </g>
   <g id="text_19">
    <!-- 12 -->
    <g transform="translate(505.952811 65.308944)scale(0.1 -0.1)">
     <use xlink:href="#DejaVuSans-31"/>
     <use xlink:href="#DejaVuSans-32" x="63.623047"/>
    </g>
   </g>
   <g id="text_20">
    <!-- 5 -->
    <g transform="translate(549.181908 81.328083)scale(0.1 -0.1)">
     <use xlink:href="#DejaVuSans-35"/>
    </g>
   </g>
   <g id="text_21">
    <!-- 12 -->
    <g transform="translate(546.000658 65.308944)scale(0.1 -0.1)">
     <use xlink:href="#DejaVuSans-31"/>
     <use xlink:href="#DejaVuSans-32" x="63.623047"/>
    </g>
   </g>
   <g id="text_22">
    <!-- 3 -->
    <g transform="translate(549.181908 49.289806)scale(0.1 -0.1)">
     <use xlink:href="#DejaVuSans-33"/>
    </g>
   </g>
  </g>
 </g>
 <defs>
  <clipPath id="p3a065a036f">
   <rect x="81" y="12.96" width="502.2" height="83.16"/>
  </clipPath>
 </defs>
</svg>
