<?xml version="1.0" encoding="UTF-8" standalone="no"?>
<!DOCTYPE svg PUBLIC "-//W3C//DTD SVG 1.1//EN" "http://www.w3.org/Graphics/SVG/1.1/DTD/svg11.dtd">
<!-- Generated by graphviz version 2.40.1 (20161225.0304)
 -->
<!-- Title: G Pages: 1 -->
<svg width="308pt" height="260pt" viewBox="0.00 0.00 308.00 260.00" xmlns="http://www.w3.org/2000/svg" xmlns:xlink="http://www.w3.org/1999/xlink">
<g id="graph0" class="graph" transform="scale(1 1) rotate(0) translate(4 256)">
<title>G</title>
<polygon fill="#ffffff" stroke="transparent" points="-4,4 -4,-256 304,-256 304,4 -4,4"/>
<!-- A -->
<g id="node1" class="node">
<title>A</title>
<ellipse fill="none" stroke="#000000" cx="82" cy="-234" rx="27" ry="18"/>
<text text-anchor="middle" x="82" y="-229.8" font-family="Times,serif" font-size="14.00" fill="#000000">A</text>
</g>
<!-- C -->
<g id="node3" class="node">
<title>C</title>
<ellipse fill="none" stroke="#000000" cx="27" cy="-162" rx="27" ry="18"/>
<text text-anchor="middle" x="27" y="-157.8" font-family="Times,serif" font-size="14.00" fill="#000000">C</text>
</g>
<!-- A&#45;&gt;C -->
<g id="edge1" class="edge">
<title>A-&gt;C</title>
<path fill="none" stroke="#000000" d="M69.5196,-217.6621C62.4876,-208.4564 53.5653,-196.7764 45.7117,-186.4953"/>
<polygon fill="#000000" stroke="#000000" points="48.2828,-184.0953 39.431,-178.2733 42.72,-188.3446 48.2828,-184.0953"/>
</g>
<!-- D -->
<g id="node4" class="node">
<title>D</title>
<ellipse fill="none" stroke="#000000" cx="73" cy="-90" rx="27" ry="18"/>
<text text-anchor="middle" x="73" y="-85.8" font-family="Times,serif" font-size="14.00" fill="#000000">D</text>
</g>
<!-- A&#45;&gt;D -->
<g id="edge2" class="edge">
<title>A-&gt;D</title>
<path fill="none" stroke="#000000" d="M80.8601,-215.7623C79.3251,-191.201 76.578,-147.2474 74.7721,-118.3541"/>
<polygon fill="#000000" stroke="#000000" points="78.2477,-117.8518 74.1306,-108.0896 71.2613,-118.2885 78.2477,-117.8518"/>
</g>
<!-- B -->
<g id="node2" class="node">
<title>B</title>
<ellipse fill="none" stroke="#000000" cx="73" cy="-18" rx="27" ry="18"/>
<text text-anchor="middle" x="73" y="-13.8" font-family="Times,serif" font-size="14.00" fill="#000000">B</text>
</g>
<!-- B&#45;&gt;A -->
<g id="edge3" class="edge">
<title>B-&gt;A</title>
<path fill="none" stroke="#000000" d="M87.1229,-33.7156C95.2535,-43.8532 104.6901,-57.7653 109,-72 123.0774,-118.4945 106.458,-174.8564 93.7657,-207.358"/>
<polygon fill="#000000" stroke="#000000" points="90.5154,-206.0595 89.9911,-216.6413 96.9999,-208.6961 90.5154,-206.0595"/>
</g>
<!-- B&#45;&gt;B -->
<g id="edge4" class="edge">
<title>B-&gt;B</title>
<path fill="none" stroke="#000000" d="M92.895,-30.4321C105.688,-33.6753 118,-29.5313 118,-18 118,-9.6218 111.5006,-5.1433 103.0395,-4.5644"/>
<polygon fill="#000000" stroke="#000000" points="102.5019,-1.1004 92.895,-5.5679 103.191,-8.0665 102.5019,-1.1004"/>
</g>
<!-- B&#45;&gt;C -->
<g id="edge5" class="edge">
<title>B-&gt;C</title>
<path fill="none" stroke="#000000" d="M59.4265,-33.8987C51.5027,-44.1052 42.0905,-58.0254 37,-72 29.792,-91.7876 27.3893,-115.5097 26.7367,-133.6307"/>
<polygon fill="#000000" stroke="#000000" points="23.2332,-133.7733 26.5302,-143.842 30.2317,-133.9148 23.2332,-133.7733"/>
</g>
<!-- C&#45;&gt;D -->
<g id="edge6" class="edge">
<title>C-&gt;D</title>
<path fill="none" stroke="#000000" d="M37.6689,-145.3008C43.3586,-136.3952 50.4777,-125.2524 56.8316,-115.307"/>
<polygon fill="#000000" stroke="#000000" points="59.9544,-116.92 62.3889,-106.6087 54.0555,-113.1513 59.9544,-116.92"/>
</g>
<!-- D&#45;&gt;B -->
<g id="edge7" class="edge">
<title>D-&gt;B</title>
<path fill="none" stroke="#000000" d="M73,-71.8314C73,-64.131 73,-54.9743 73,-46.4166"/>
<polygon fill="#000000" stroke="#000000" points="76.5001,-46.4132 73,-36.4133 69.5001,-46.4133 76.5001,-46.4132"/>
</g>
<!-- E -->
<g id="node5" class="node">
<title>E</title>
<ellipse fill="none" stroke="#000000" cx="183" cy="-234" rx="27" ry="18"/>
<text text-anchor="middle" x="183" y="-229.8" font-family="Times,serif" font-size="14.00" fill="#000000">E</text>
</g>
<!-- E&#45;&gt;E -->
<g id="edge8" class="edge">
<title>E-&gt;E</title>
<path fill="none" stroke="#000000" d="M202.895,-246.4321C215.688,-249.6753 228,-245.5313 228,-234 228,-225.6218 221.5006,-221.1433 213.0395,-220.5644"/>
<polygon fill="#000000" stroke="#000000" points="212.5019,-217.1004 202.895,-221.5679 213.191,-224.0665 212.5019,-217.1004"/>
</g>
<!-- F -->
<g id="node6" class="node">
<title>F</title>
<ellipse fill="none" stroke="#000000" cx="183" cy="-162" rx="27" ry="18"/>
<text text-anchor="middle" x="183" y="-157.8" font-family="Times,serif" font-size="14.00" fill="#000000">F</text>
</g>
<!-- E&#45;&gt;F -->
<g id="edge9" class="edge">
<title>E-&gt;F</title>
<path fill="none" stroke="#000000" d="M177.0843,-216.2022C176.2798,-208.1807 176.0571,-198.5231 176.4162,-189.5957"/>
<polygon fill="#000000" stroke="#000000" points="179.9097,-189.8099 177.105,-179.593 172.9262,-189.3289 179.9097,-189.8099"/>
</g>
<!-- F&#45;&gt;E -->
<g id="edge10" class="edge">
<title>F-&gt;E</title>
<path fill="none" stroke="#000000" d="M188.895,-179.593C189.7094,-187.5865 189.942,-197.2363 189.5928,-206.1759"/>
<polygon fill="#000000" stroke="#000000" points="186.0976,-205.9891 188.9157,-216.2022 193.0817,-206.4608 186.0976,-205.9891"/>
</g>
<!-- F&#45;&gt;F -->
<g id="edge11" class="edge">
<title>F-&gt;F</title>
<path fill="none" stroke="#000000" d="M202.895,-174.4321C215.688,-177.6753 228,-173.5313 228,-162 228,-153.6218 221.5006,-149.1433 213.0395,-148.5644"/>
<polygon fill="#000000" stroke="#000000" points="212.5019,-145.1004 202.895,-149.5679 213.191,-152.0665 212.5019,-145.1004"/>
</g>
<!-- G -->
<g id="node7" class="node">
<title>G</title>
<ellipse fill="none" stroke="#000000" cx="273" cy="-234" rx="27" ry="18"/>
<text text-anchor="middle" x="273" y="-229.8" font-family="Times,serif" font-size="14.00" fill="#000000">G</text>
</g>
</g>
</svg>