<?xml version="1.0" encoding="UTF-8" standalone="no"?>
<!DOCTYPE svg PUBLIC "-//W3C//DTD SVG 1.1//EN" "http://www.w3.org/Graphics/SVG/1.1/DTD/svg11.dtd">
<!-- Generated by graphviz version 2.40.1 (20161225.0304)
 -->
<!-- Title: G Pages: 1 -->
<svg width="170pt" height="332pt" viewBox="0.00 0.00 170.00 332.00" xmlns="http://www.w3.org/2000/svg" xmlns:xlink="http://www.w3.org/1999/xlink">
<g id="graph0" class="graph" transform="scale(1 1) rotate(0) translate(4 328)">
<title>G</title>
<polygon fill="#ffffff" stroke="transparent" points="-4,4 -4,-328 166,-328 166,4 -4,4"/>
<!-- 0 -->
<g id="node1" class="node">
<title>0</title>
<ellipse fill="none" stroke="#000000" cx="27" cy="-306" rx="27" ry="18"/>
<text text-anchor="middle" x="27" y="-301.8" font-family="Times,serif" font-size="14.00" fill="#000000">0</text>
</g>
<!-- 1 -->
<g id="node2" class="node">
<title>1</title>
<ellipse fill="none" stroke="#000000" cx="99" cy="-306" rx="27" ry="18"/>
<text text-anchor="middle" x="99" y="-301.8" font-family="Times,serif" font-size="14.00" fill="#000000">1</text>
</g>
<!-- 2 -->
<g id="node3" class="node">
<title>2</title>
<ellipse fill="none" stroke="#000000" cx="99" cy="-234" rx="27" ry="18"/>
<text text-anchor="middle" x="99" y="-229.8" font-family="Times,serif" font-size="14.00" fill="#000000">2</text>
</g>
<!-- 1&#45;&#45;2 -->
<g id="edge1" class="edge">
<title>1--2</title>
<path fill="none" stroke="#000000" d="M99,-287.8314C99,-277 99,-263.2876 99,-252.4133"/>
</g>
<!-- 3 -->
<g id="node4" class="node">
<title>3</title>
<ellipse fill="none" stroke="#000000" cx="63" cy="-162" rx="27" ry="18"/>
<text text-anchor="middle" x="63" y="-157.8" font-family="Times,serif" font-size="14.00" fill="#000000">3</text>
</g>
<!-- 2&#45;&#45;3 -->
<g id="edge2" class="edge">
<title>2--3</title>
<path fill="none" stroke="#000000" d="M90.2854,-216.5708C84.6253,-205.2506 77.2784,-190.5568 71.6343,-179.2687"/>
</g>
<!-- 4 -->
<g id="node5" class="node">
<title>4</title>
<ellipse fill="none" stroke="#000000" cx="135" cy="-162" rx="27" ry="18"/>
<text text-anchor="middle" x="135" y="-157.8" font-family="Times,serif" font-size="14.00" fill="#000000">4</text>
</g>
<!-- 2&#45;&#45;4 -->
<g id="edge3" class="edge">
<title>2--4</title>
<path fill="none" stroke="#000000" d="M107.7146,-216.5708C113.3747,-205.2506 120.7216,-190.5568 126.3657,-179.2687"/>
</g>
<!-- 5 -->
<g id="node6" class="node">
<title>5</title>
<ellipse fill="none" stroke="#000000" cx="91" cy="-90" rx="27" ry="18"/>
<text text-anchor="middle" x="91" y="-85.8" font-family="Times,serif" font-size="14.00" fill="#000000">5</text>
</g>
<!-- 3&#45;&#45;5 -->
<g id="edge4" class="edge">
<title>3--5</title>
<path fill="none" stroke="#000000" d="M69.778,-144.5708C74.1479,-133.3339 79.8106,-118.7727 84.1874,-107.5182"/>
</g>
<!-- 6 -->
<g id="node7" class="node">
<title>6</title>
<ellipse fill="none" stroke="#000000" cx="91" cy="-18" rx="27" ry="18"/>
<text text-anchor="middle" x="91" y="-13.8" font-family="Times,serif" font-size="14.00" fill="#000000">6</text>
</g>
<!-- 3&#45;&#45;6 -->
<g id="edge5" class="edge">
<title>3--6</title>
<path fill="none" stroke="#000000" d="M57.5776,-144.3457C52.7956,-125.9021 47.6359,-96.3219 55,-72 59.3099,-57.7653 68.7465,-43.8532 76.8771,-33.7156"/>
</g>
<!-- 4&#45;&#45;5 -->
<g id="edge6" class="edge">
<title>4--5</title>
<path fill="none" stroke="#000000" d="M124.7949,-145.3008C117.7882,-133.8352 108.5152,-118.6612 101.4553,-107.1086"/>
</g>
<!-- 4&#45;&#45;6 -->
<g id="edge7" class="edge">
<title>4--6</title>
<path fill="none" stroke="#000000" d="M141.8829,-144.3704C148.0709,-125.6882 154.8064,-95.6749 145,-72 137.9475,-54.9739 122.6336,-40.517 110.1088,-30.859"/>
</g>
<!-- 5&#45;&#45;5 -->
<g id="edge8" class="edge">
<title>5--5</title>
<path fill="none" stroke="#000000" d="M110.895,-102.4321C123.688,-105.6753 136,-101.5313 136,-90 136,-78.4688 123.688,-74.3247 110.895,-77.5679"/>
</g>
<!-- 5&#45;&#45;6 -->
<g id="edge9" class="edge">
<title>5--6</title>
<path fill="none" stroke="#000000" d="M91,-71.8314C91,-61 91,-47.2876 91,-36.4133"/>
</g>
</g>
</svg>